<svg width="124" height="59" viewBox="0 0 124 59" fill="none" xmlns="http://www.w3.org/2000/svg">
<path d="M25.483 41.9537C26.6289 41.9537 27.7093 41.3391 28.1514 40.6333C28.5935 39.9275 28.8592 39.418 28.8592 38.5993V32.0906C28.8592 31.3868 29.0277 30.8238 29.3667 30.4035C29.7038 29.9812 30.2529 29.7711 31.0122 29.7711C31.7715 29.7711 32.3207 29.9812 32.6577 30.4035C32.9947 30.8238 33.1652 31.3868 33.1652 32.0906C33.1652 35.3142 33.1851 35.5937 32.0947 37.8756C31.4999 39.1226 30.9488 40.1873 28.6788 41.9537C30.1677 41.9537 31.8013 41.5096 33.5875 40.3221C37.8995 37.4593 39.8741 33.177 39.8741 28.7877C39.8741 26.5098 39.0296 24.6601 37.3424 23.2386C35.6533 21.8172 33.643 21.1074 31.3076 21.1074C30.239 21.1074 29.1824 21.3751 28.1415 21.9084C27.1007 22.4436 26.5793 22.9571 25.483 22.9571C24.3866 22.9571 23.8652 22.4436 22.8244 21.9084C21.7836 21.3751 20.7289 21.1074 19.6583 21.1074C17.3249 21.1074 15.3126 21.8172 13.6235 23.2386C11.9344 24.6601 11.0918 26.5098 11.0918 28.7877C11.0918 33.177 13.0664 37.4593 17.3784 40.3221C19.1666 41.5096 20.8934 41.9537 22.3823 41.9537C20.1143 40.1873 19.468 39.1207 18.8732 37.8756C17.7828 35.5937 17.8026 35.3142 17.8026 32.0906C17.8026 31.3868 17.9712 30.8238 18.3082 30.4035C18.6452 29.9812 19.1944 29.7711 19.9537 29.7711C20.713 29.7711 21.2622 29.9812 21.5992 30.4035C21.9382 30.8238 22.1067 31.3868 22.1067 32.0906V38.5993C22.1067 39.198 22.3228 39.9652 22.8165 40.6353C23.3081 41.3074 24.3371 41.9537 25.483 41.9537Z" fill="#30697D"/>
<path fill-rule="evenodd" clip-rule="evenodd" d="M46.7754 41.9004C47.719 41.7438 48.3535 41.2085 48.4645 40.3699V39.9219C48.3614 39.1328 47.719 38.5103 46.9181 38.4429C46.821 38.4469 46.7199 38.4488 46.6148 38.4488C46.5989 38.4488 46.5811 38.4488 46.5652 38.4488C45.9328 38.4488 45.3321 38.203 44.8682 37.7768C44.3329 37.2772 44.0653 36.613 44.0653 35.7784C44.0653 35.0567 44.323 34.458 44.8424 33.9743C45.3579 33.4945 45.9824 33.2526 46.7119 33.2526C48.524 33.2526 49.432 34.2756 49.432 36.3216V41.6883H53.2761V35.4037C53.2761 33.6154 52.6238 32.2059 51.3173 31.1749C50.108 30.2233 48.5458 29.7495 46.6287 29.7495C44.7116 29.7495 43.2247 30.3344 42.0252 31.4981C40.8238 32.6658 40.2251 34.1249 40.2251 35.8775C40.2251 37.7589 40.8536 39.2775 42.1144 40.4373C43.2147 41.4484 44.4598 41.9559 45.8475 41.9559C46.1885 41.9559 46.4998 41.948 46.7773 41.9024L46.7754 41.9004Z" fill="#EB5E33"/>
<path fill-rule="evenodd" clip-rule="evenodd" d="M59.1703 37.8934C59.1703 38.2483 58.9443 38.4247 58.4943 38.4247H54.7969V41.688H59.099C60.3717 41.688 61.3551 41.3727 62.047 40.7443C62.7409 40.1158 63.0858 39.2058 63.0858 38.0124C63.0858 36.8189 62.3404 35.7721 60.8495 35.0148C59.3587 34.2574 58.6132 33.8153 58.6132 33.6845C58.6132 33.3296 58.871 33.1532 59.3864 33.1532H62.4078V30.0347H58.6608C57.6458 30.0347 56.7913 30.3083 56.0994 30.8554C55.3104 31.468 54.9158 32.2967 54.9158 33.3455C54.9158 34.8601 55.6256 35.9644 57.0431 36.6563C58.4606 37.3482 59.1703 37.7606 59.1703 37.8894V37.8934Z" fill="#EB5E33"/>
<path fill-rule="evenodd" clip-rule="evenodd" d="M64.1265 35.8613C64.1265 37.6337 64.7073 39.067 65.8671 40.1634C66.9476 41.1784 68.2283 41.6859 69.7093 41.6859H72.005V38.2304H70.3853C69.5963 38.2304 68.9956 38.0163 68.5852 37.59C68.1748 37.1618 67.9686 36.5869 67.9686 35.8613C67.9686 35.1357 68.1748 34.5211 68.5852 34.1087C68.9956 33.6983 69.5963 33.4922 70.3853 33.4922H72.005V30.0366H69.7093C68.2263 30.0366 66.9456 30.5521 65.8671 31.583C64.7073 32.6952 64.1265 34.1206 64.1265 35.8613Z" fill="#EB5E33"/>
<path fill-rule="evenodd" clip-rule="evenodd" d="M73.6011 35.8493C73.6011 37.5206 74.2018 38.9559 75.4012 40.1553C76.6006 41.3508 78.0082 41.9515 79.62 41.9515C81.2318 41.9515 82.6612 41.3508 83.8626 40.1553C85.064 38.9559 85.6628 37.5206 85.6628 35.8493C85.6628 34.178 85.0621 32.7427 83.8626 31.5432C82.6632 30.3478 81.2477 29.7471 79.62 29.7471C77.9924 29.7471 76.563 30.3478 75.3774 31.5432C74.1938 32.7447 73.6011 34.178 73.6011 35.8493ZM77.9527 37.582C77.5166 37.0983 77.3005 36.5233 77.3005 35.8493C77.3005 35.1752 77.5225 34.5805 77.9646 34.1047C78.4067 33.6328 78.9598 33.3949 79.62 33.3949C80.2802 33.3949 80.8333 33.6328 81.2754 34.1047C81.7175 34.5805 81.9396 35.1594 81.9396 35.8493C81.9396 36.5392 81.7235 37.0983 81.2873 37.582C80.8512 38.0618 80.2961 38.3037 79.62 38.3037C78.944 38.3037 78.3869 38.0618 77.9527 37.582Z" fill="#EB5E33"/>
<path fill-rule="evenodd" clip-rule="evenodd" d="M87.7661 24.8643V41.688H91.6082V24.8643H87.7661Z" fill="#EB5E33"/>
<path fill-rule="evenodd" clip-rule="evenodd" d="M94.4355 30.0366V41.6879H98.2797V30.0366H94.4355Z" fill="#EB5E33"/>
<path fill-rule="evenodd" clip-rule="evenodd" d="M94.8023 28.3217C95.2207 28.74 95.7401 28.9501 96.3566 28.9501C96.9732 28.9501 97.4926 28.74 97.9109 28.3217C98.3332 27.9034 98.5434 27.3879 98.5434 26.7753C98.5434 26.1627 98.3332 25.6235 97.9109 25.2032C97.4926 24.7849 96.9732 24.5747 96.3566 24.5747C95.7401 24.5747 95.2207 24.7849 94.8023 25.2032C94.3801 25.6215 94.1699 26.1469 94.1699 26.7753C94.1699 27.4038 94.3801 27.9034 94.8023 28.3217Z" fill="#30697D"/>
<path fill-rule="evenodd" clip-rule="evenodd" d="M99.5367 30.0366L101.906 38.7954C102.179 39.8224 102.495 40.5638 102.847 41.0119C103.347 41.6403 104.065 41.9556 104.999 41.9556C105.869 41.9556 106.545 41.6086 107.029 40.9207C107.336 40.5024 107.625 39.7926 107.899 38.7974L110.51 30.0386H106.594L104.999 37.6773L103.403 30.0386H99.5347L99.5367 30.0366Z" fill="#EB5E33"/>
<path fill-rule="evenodd" clip-rule="evenodd" d="M110.92 35.8493C110.92 37.5206 111.521 38.9559 112.721 40.1553C113.92 41.3508 115.328 41.9515 116.939 41.9515C118.357 41.9515 119.646 41.5292 120.807 40.6827C121.967 39.8361 122.837 38.7358 123.418 37.3838L120.639 35.9821C120.333 36.6919 119.858 37.3045 119.213 37.8199C118.569 38.3354 117.901 38.5931 117.207 38.5931C116.45 38.5931 115.829 38.2918 115.345 37.6911C114.862 37.0903 114.62 36.4103 114.62 35.657C114.62 34.9036 114.842 34.1939 115.284 33.5872C115.726 32.9786 116.319 32.6733 117.056 32.6733C117.314 32.6733 117.564 32.701 117.806 32.7585C118.048 32.814 118.297 32.9191 118.555 33.0797L116.372 34.4813C116.069 34.745 115.871 35.1177 115.883 35.5301C115.889 35.7145 115.92 36.0495 116.158 36.3528C116.396 36.6582 116.769 36.904 117.266 36.8921C117.479 36.8861 117.677 36.8326 117.853 36.7375L118.143 36.5412C118.143 36.5412 118.159 36.5293 118.169 36.5253L122.669 33.4703C122.009 32.2768 121.21 31.3589 120.276 30.7145C119.342 30.0702 118.23 29.7471 116.941 29.7471C115.298 29.7471 113.884 30.3478 112.699 31.5432C111.515 32.7447 110.922 34.178 110.922 35.8493H110.92Z" fill="#EB5E33"/>
<path fill-rule="evenodd" clip-rule="evenodd" d="M25.4831 16.492C35.0627 16.492 42.3802 21.6604 46.5257 28.2682C47.4634 28.1869 50.1814 28.3158 51.8249 29.6897C47.5685 20.346 38.6828 12.4556 25.4831 12.4556C20.2671 12.4556 14.829 13.8988 10.1027 16.7418C6.59757 18.8512 2.96558 22.6239 1.42714 26.6604C-0.240164 31.0338 -0.416609 36.115 0.741186 41.2339C0.741186 26.4919 13.0309 16.49 25.4831 16.49V16.492Z" fill="#EB5E33"/>
</svg>
