<?xml version="1.0" standalone="no"?>
<!DOCTYPE svg PUBLIC "-//W3C//DTD SVG 20010904//EN"
 "http://www.w3.org/TR/2001/REC-SVG-20010904/DTD/svg10.dtd">
<svg version="1.0" xmlns="http://www.w3.org/2000/svg"
 width="40.000000pt" height="40.000000pt" viewBox="0 0 40.000000 40.000000"
 preserveAspectRatio="xMidYMid meet">

<g transform="translate(0.000000,40.000000) scale(0.100000,-0.100000)"
fill="#000000" stroke="none">
<path d="M66 327 c-15 -19 -26 -42 -26 -53 1 -14 5 -12 17 11 8 17 25 40 36
53 11 12 15 22 9 22 -6 0 -22 -15 -36 -33z"/>
<path d="M307 338 c11 -13 28 -36 36 -53 12 -23 16 -25 17 -11 0 22 -46 86
-62 86 -6 0 -2 -10 9 -22z"/>
<path d="M132 305 c-24 -20 -34 -42 -52 -115 -25 -100 -20 -120 28 -120 14 0
35 -11 48 -25 13 -14 32 -25 44 -25 12 0 31 11 44 25 13 14 34 25 48 25 48 0
53 20 28 120 -18 73 -28 95 -52 115 -40 34 -96 34 -136 0z m135 -19 c23 -27
60 -164 50 -190 -9 -24 -225 -24 -234 0 -8 21 24 155 44 183 32 47 101 50 140
7z m-39 -228 c-6 -17 -50 -17 -55 0 -3 8 6 12 27 12 21 0 30 -4 28 -12z"/>
</g>
</svg>
